<svg version="1.2" xmlns="http://www.w3.org/2000/svg" viewBox="0 0 30 30" width="30" height="30">
	<title>icon-linkedin-svg</title>
	<style>
		.s0 { fill: #1686b0 } 
		.s1 { fill: #ffffff } 
	</style>
	<path id="Layer" class="s0" d="m15 30c-8.3 0-15-6.7-15-15c0-8.3 6.7-15 15-15c8.3 0 15 6.7 15 15c0 8.3-6.7 15-15 15z" />
	<path id="Layer" class="s1" d="m8 12.6h2.9v9.2h-2.9zm1.3-1.2c-1 0-1.7-0.7-1.7-1.6c0-0.9 0.7-1.6 1.7-1.6c1 0 1.8 0.7 1.8 1.6c0 0.9-0.8 1.6-1.8 1.6zm13.1 10.5h-3.3v-4.8c0-1.3-0.5-2.2-1.6-2.2c-0.9 0-1.3 0.6-1.6 1.2c0 0.1 0 0.5 0 0.7v5h-3.3c0 0 0.1-8.5 0-9.3l3.3 0.1v1.4c0.2-0.6 1.2-1.6 2.8-1.6c2.1 0 3.7 1.3 3.7 4.2z" />
</svg>