<?xml version="1.0" encoding="UTF-8"?>
<svg width="30px" height="31px" viewBox="0 0 30 31" version="1.1" xmlns="http://www.w3.org/2000/svg" xmlns:xlink="http://www.w3.org/1999/xlink">
    <title>685DE91C-0CEE-4756-AA51-BF89A43C3859</title>
    <defs>
        <polygon id="path-1" points="0 0 30 0 30 30 0 30"></polygon>
    </defs>
    <g id="Page-1" stroke="none" stroke-width="1" fill="none" fill-rule="evenodd">
        <g id="Homepage---Desktop" transform="translate(-963.000000, -6986.000000)">
            <g id="Hero_Footer" transform="translate(0.000000, 6501.000000)">
                <g id="Group-17" transform="translate(749.000000, 485.444776)">
                    <g id="Group-11" transform="translate(114.000000, 0.000000)">
                        <g id="Group-6-Copy-2" transform="translate(100.000000, 0.000000)">
                            <g id="Group-3">
                                <mask id="mask-2" fill="white">
                                    <use xlink:href="#path-1"></use>
                                </mask>
                                <g id="Clip-2"></g>
                                <path d="M30,15.0000848 C30,23.2840048 23.2846451,30.0001696 14.9998304,30.0001696 C6.71586361,30.0001696 -0.000339159337,23.2840048 -0.000339159337,15.0000848 C-0.000339159337,6.71616481 6.71586361,0 14.9998304,0 C23.2846451,0 30,6.71616481 30,15.0000848" id="Fill-1" fill="#33CCFF" mask="url(#mask-2)"></path>
                            </g>
                            <path d="M23.2876128,9.86049325 C22.7678511,10.0953598 22.1938239,10.2378059 21.6333631,10.3319221 C21.8996032,10.2878316 22.2896364,9.80622806 22.4464976,9.61121254 C22.6856049,9.31360191 22.8840132,8.97529238 22.9959357,8.60985026 C23.01035,8.58102188 23.0205248,8.54541035 22.9925441,8.52336512 C22.9560845,8.50895093 22.9331913,8.51658197 22.9043627,8.53099616 C22.2786137,8.86591411 21.6316673,9.10925956 20.9431739,9.28138195 C20.8855168,9.29579614 20.8431218,9.28138195 20.8075101,9.24577042 C20.7507009,9.18133051 20.6972833,9.12028218 20.6362347,9.07025646 C20.3462534,8.82436733 20.0359226,8.6310476 19.6857406,8.48860148 C19.2261797,8.30036912 18.723376,8.22151502 18.2282034,8.25373497 C17.7465971,8.28510703 17.2734698,8.42077 16.8461291,8.643766 C16.4170925,8.8676099 16.0346903,9.17963473 15.7302948,9.55525157 C15.4157246,9.94358682 15.1834004,10.4022972 15.0646946,10.8889881 C14.9493805,11.3587212 14.9587074,11.8233668 15.0290829,12.2973393 C15.0401056,12.3761934 15.0324745,12.387216 14.961251,12.3761934 C12.267478,11.9751398 10.0341138,11.0110848 8.22130712,8.94561611 C8.14245257,8.85573939 8.10005766,8.85573939 8.03561738,8.95239926 C7.24198453,10.141146 7.62693038,12.0522981 8.61812354,12.9909162 C8.75039569,13.1164045 8.88605942,13.2410448 9.03189794,13.3555105 C8.97848034,13.3665331 8.31881543,13.2944621 7.73122188,12.9909162 C7.65321523,12.9408905 7.61336401,12.9697189 7.60658082,13.0587477 C7.59894974,13.1876275 7.60997242,13.3054847 7.62777828,13.4453872 C7.77955208,14.6502439 8.61473195,15.7652239 9.75769892,16.2001933 C9.89336265,16.2578501 10.0434407,16.3078758 10.1901271,16.3324647 C9.92982228,16.3892736 9.66103851,16.4299725 8.91404007,16.3723157 C8.82161915,16.3545099 8.78600742,16.4002962 8.82161915,16.4901729 C9.38292785,18.0197729 10.5945746,18.4750917 11.5018258,18.7345471 C11.6230753,18.7557445 11.7443247,18.7557445 11.8664221,18.783725 C11.858791,18.7947476 11.8520078,18.7947476 11.8452246,18.8057702 C11.5442207,19.2644806 10.5004579,19.6061817 10.0146121,19.7757604 C9.13110204,20.0843937 8.16873742,20.2234482 7.23435345,20.1318757 C7.08512334,20.1098305 7.0537511,20.1115263 7.01305198,20.1318757 C6.97235286,20.1564646 7.00796459,20.192924 7.0562948,20.2310793 C7.24537613,20.3565675 7.43869695,20.4676416 7.63456147,20.5744761 C8.22809031,20.8890447 8.8462082,21.1391732 9.49315463,21.3180788 C12.8330262,22.240587 16.5943033,21.5622721 19.1023866,19.0711609 C21.0712065,17.1150705 21.7613958,14.4162253 21.7613958,11.7148364 C21.7613958,11.6096976 21.8868847,11.551193 21.9606519,11.495232 C22.4727825,11.1102883 22.8865569,10.6498821 23.2681111,10.1352108 C23.3545967,10.0198972 23.3545967,9.91730212 23.3545967,9.87490744 L23.3545967,9.86049325 C23.3545967,9.81725068 23.3545967,9.82996908 23.2876128,9.86049325" id="Fill-4" fill="#FFFFFF"></path>
                        </g>
                    </g>
                </g>
            </g>
        </g>
    </g>
</svg>