<svg width="40" height="40" viewBox="0 0 40 40" xmlns="http://www.w3.org/2000/svg" xmlns:xlink="http://www.w3.org/1999/xlink">
    <defs>
        <path d="M13.492 0c.8 0 1.454.622 1.505 1.409l.003.099v2.137h2.489c.877 0 1.598.675 1.671 1.515l.006.141.521 10.77a.469.469 0 0 1-.468.491H.469a.469.469 0 0 1-.468-.49L.52 5.323c0-.927.751-1.678 1.678-1.678l2.488-.001V1.508c0-.8.623-1.454 1.41-1.505L6.194 0h7.297zm5.121 13.291H1.073l-.112 2.334h17.765l-.113-2.334zM4.687 4.583H2.199c-.41 0-.74.332-.741.764L1.12 12.29h17.444l-.34-7.043a.742.742 0 0 0-.559-.643l-.102-.018-.075-.004H15v2.136l-.005.051h.578v1H13.49v-1h.575l-.002-.051-.001-2.136H5.625v2.136l-.005.051h.578v1H4.115v-1h.575l-.002-.051-.001-2.136zM13.492.937H6.195a.571.571 0 0 0-.566.504l-.004.067v2.137h8.437V1.508a.571.571 0 0 0-.504-.567l-.066-.003z" id="94tgg3d14a"/>
    </defs>
    <g transform="translate(10.156 12.031)" fill="none" fill-rule="evenodd">
        <mask id="tb7gyuth2b" fill="#fff">
            <use xlink:href="#94tgg3d14a"/>
        </mask>
        <use fill="#000" fill-rule="nonzero" xlink:href="#94tgg3d14a"/>
        <g mask="url(#tb7gyuth2b)" fill="#FA0783">
            <path d="M-10.156-12.031h40v40h-40z"/>
        </g>
    </g>
</svg>
